{"title":"Clinton Cash (2016) 720p WEB-DL","uid":15408013,"size":526250667,"categoryP":"video","categoryS":"movies","magnet":"?xt=urn:btih:7434e50497541c971d6d54fc065bb6fbe3ba87fe&amp;dn=Clinton+Cash+%282016%29+720p+WEB-DL+&amp;tr=udp%3A%2F%2Ftracker.leechers-paradise.org%3A6969&amp;tr=udp%3A%2F%2Fzer0day.ch%3A1337&amp;tr=udp%3A%2F%2Fopen.demonii.com%3A1337&amp;tr=udp%3A%2F%2Ftracker.coppersurfer.tk%3A6969&amp;tr=udp%3A%2F%2Fexodus.desync.com%3A6969","seeders":74,"leechers":4,"uploader":"Horisarte","files":1,"time":1469528046,"description":"http://www.imdb.com/title/tt5673884/\r\n\r\nFormat                      : Matroska\r\nFormat version              : Version 4 / Version 2\r\nFile size                   : 502 MiB\r\nDuration                    : 1h 4mn\r\nOverall bit rate            : 1 080 Kbps\r\nMovie name                  : Clinton.Cash.2016.720p.WEB-DL.500MB.MkvCage\r\nEncoded date                : UTC 2016-07-25 05:22:38\r\nWriting application         : mkvmerge v7.9.0 ('Birds') 32bit\r\nWriting library             : libebml v1.3.1 + libmatroska v1.4.2\r\n \r\nVideo\r\nID                          : 2\r\nFormat                      : AVC\r\nFormat/Info                 : Advanced Video Codec\r\nFormat profile              :   \r\nFormat settings, CABAC      : Yes\r\nFormat settings, ReFrames   : 5 frames\r\nCodec ID                    : V_MPEG4/ISO/AVC\r\nDuration                    : 1h 4mn\r\nBit rate                    : 1 015 Kbps\r\nWidth                       : 1 280 pixels\r\nHeight                      : 544 pixels\r\nDisplay aspect ratio        : 2.35:1\r\nFrame rate mode             : Constant\r\nFrame rate                  : 23.976 (24000/1001) fps\r\nColor space                 : YUV\r\nChroma subsampling          : 4:2:0\r\nBit depth                   : 8 bits\r\nScan type                   : Progressive\r\nBits/(Pixel*Frame)          : 0.061\r\nStream size                 : 471 MiB (94%)\r\nWriting library             : x264 core 146 r2538 121396c\r\nEncoding settings           : cabac=1 / ref=5 / deblock=1:-1:-1 / analyse=0x3:0x113 / me=umh / subme=8 / psy=1 / psy_rd=1.00:0.00 / mixed_ref=1 / me_range=16 / chroma_me=1 / trellis=1 / 8x8dct=1 / cqm=0 / deadzone=21,11 / fast_pskip=1 / chroma_qp_offset=-2 / threads=60 / lookahead_threads=4 / sliced_threads=0 / nr=0 / decimate=1 / interlaced=0 / bluray_compat=0 / constrained_intra=0 / bframes=3 / b_pyramid=2 / b_adapt=2 / b_bias=0 / direct=3 / weightb=1 / open_gop=0 / weightp=2 / keyint=240 / keyint_min=23 / scenecut=40 / intra_refresh=0 / rc_lookahead=50 / rc=2pass / mbtree=1 / bitrate=1015 / ratetol=1.0 / qcomp=0.60 / qpmin=10 / qpmax=51 / qpstep=4 / cplxblur=20.0 / qblur=0.5 / vbv_maxrate=62500 / vbv_bufsize=78125 / nal_hrd=none / filler=0 / ip_ratio=1.40 / aq=1:1.00\r\nDefault                     : Yes\r\nForced                      : No\r\n \r\nAudio\r\nID                          : 1\r\nFormat                      : AAC\r\nFormat/Info                 : Advanced Audio Codec\r\nFormat profile              : HE-AAC / LC\r\nCodec ID                    : A_AAC\r\nDuration                    : 1h 4mn\r\nBit rate                    : 63.8 Kbps\r\nChannel(s)                  : 2 channels\r\nChannel positions           : Front: L R\r\nSampling rate               : 44.1 KHz / 22.05 KHz\r\nFrame rate                  : 21.533 fps (1024 spf)\r\nCompression mode            : Lossy\r\nDelay relative to video     : 33ms\r\nStream size                 : 29.6 MiB (6%)\r\nLanguage                    : English\r\nDefault                     : Yes\r\nForced                      : No\r\n\r\n\r\nSubtitle:\r\n \nhttp://keepsubtitles.com/subtitle/clinton-cash-2016","torrent":{"xt":"urn:btih:7434e50497541c971d6d54fc065bb6fbe3ba87fe","amp;dn":"Clinton+Cash+%282016%29+720p+WEB-DL+","amp;tr":["udp%3A%2F%2Ftracker.leechers-paradise.org%3A6969","udp%3A%2F%2Fzer0day.ch%3A1337","udp%3A%2F%2Fopen.demonii.com%3A1337","udp%3A%2F%2Ftracker.coppersurfer.tk%3A6969","udp%3A%2F%2Fexodus.desync.com%3A6969"],"infoHash":"7434e50497541c971d6d54fc065bb6fbe3ba87fe","infoHashBuffer":{"type":"Buffer","data":[116,52,229,4,151,84,28,151,29,109,84,252,6,91,182,251,227,186,135,254]},"announce":[],"urlList":[]}}